#!OML:ASF F:\VICON\USERDATA\INSTALL\rory3\rory3.ASF
:FULLY-SPECIFIED
:DEGREES
75
root 6.53175 16.1088 -35.0559 26.5125 -15.015 -5.13345
lowerback -14.8443 1.01801 0.981985
upperback -7.19308 1.13326 1.15737
thorax 0.719269 0.540308 0.824567
lowerneck -15.7372 -2.59262 -1.29082
upperneck 39.8457 -5.35901 3.50234
head 17.4374 -1.97588 0.780031
rclavicle -2.33199e-014 -3.02153e-014
rhumerus -42.152 -15.9225 -69.302
rradius 13.6897
rwrist 11.8774
rhand -4.92274 15.4835
rfingers 7.12502
rthumb 20.8676 -13.4142
lclavicle -2.33199e-014 -3.02153e-014
lhumerus -45.6252 17.2326 65.0706
lradius 27.8986
lwrist -1.21338
lhand -2.52257 14.8593
lfingers 7.12502
lthumb 23.1721 43.4855
rfemur -33.4154 -13.1674 25.0617
rtibia 52.6822
rfoot -32.5882 -35.869
rtoes 37.7789
lfemur -41.5803 -7.39329 -22.2397
ltibia 41.2408
lfoot -47.0974 25.5577
ltoes 12.9544
76
root 6.51568 16.1097 -35.0427 26.5322 -16.3306 -5.4742
lowerback -15.2664 1.39713 0.535581
upperback -7.40659 1.68245 1.17588
thorax 0.698806 0.824724 1.1861
lowerneck -15.4968 -2.37793 -0.842172
upperneck 40.4341 -5.05375 3.08434
head 17.6613 -1.84026 0.575248
rclavicle 1.32068e-014 1.15295e-014
rhumerus -42.8588 -15.2271 -69.4145
rradius 13.6204
rwrist 11.6917
rhand -4.82983 15.4127
rfingers 7.12502
rthumb 20.9569 -13.4752
lclavicle 1.32068e-014 1.15295e-014
lhumerus -46.4979 16.4245 65.5466
lradius 28.3355
lwrist -1.18194
lhand -3.16302 16.3741
lfingers 7.12502
lthumb 22.5575 45.0762
rfemur -32.6811 -12.2428 25.1037
rtibia 53.3077
rfoot -31.1496 -35.5762
rtoes 38.7534
lfemur -41.4501 -7.8745 -21.7758
ltibia 41.3324
lfoot -49.225 25.5811
ltoes 14.5151
77
root 6.51446 16.1101 -35.0856 27.354 -15.9282 -5.05282
lowerback -15.694 1.08541 -0.296171
upperback -7.62956 1.37864 1.25634
thorax 0.670229 0.694733 1.69951
lowerneck -16.064 -2.49207 -1.05022
upperneck 40.4531 -5.1911 3.15769
head 17.8386 -1.90652 0.611829
rclavicle -2.19781e-014 -1.0138e-014
rhumerus -42.4964 -14.7925 -69.7027
rradius 13.5761
rwrist 11.4599
rhand -4.79552 15.5238
rfingers 7.12502
rthumb 20.9899 -13.3604
lclavicle -2.19781e-014 -1.0138e-014
lhumerus -46.2421 16.7303 65.9246
lradius 28.2166
lwrist -1.53301
lhand -3.3472 16.7287
lfingers 7.12502
lthumb 22.3807 45.4522
rfemur -33.4367 -13.0671 25.4811
rtibia 54.2088
rfoot -28.719 -35.4046
rtoes 40.7872
lfemur -42.6375 -6.48346 -22.4924
ltibia 41.2804
lfoot -47.3847 24.8842
ltoes 12.593
78
root 6.54888 16.0959 -35.0487 26.768 -15.9606 -5.92215
lowerback -15.3768 1.41337 0.878348
upperback -7.55707 1.65152 1.39412
thorax 0.600698 0.804249 1.21703
lowerneck -15.5983 -2.52508 -1.13888
upperneck 40.4482 -5.2486 3.24584
head 17.7221 -1.93983 0.663961
rclavicle 6.52262e-014 -3.57812e-015
rhumerus -43.0975 -14.8142 -69.2416
rradius 13.3577
rwrist 12.0627
rhand -4.53536 15.96
rfingers 7.12502
rthumb 21.2398 -12.8963
lclavicle 6.52262e-014 -3.57812e-015
lhumerus -46.8513 16.8737 65.713
lradius 27.7124
lwrist -2.02453
lhand -3.18929 15.9156
lfingers 7.12502
lthumb 22.5323 44.6209
rfemur -31.6713 -14.0536 26.1134
rtibia 54.7638
rfoot -25.6967 -35.4639
rtoes 39.6871
lfemur -41.5794 -7.58412 -21.5082
ltibia 41.3946
lfoot -49.1609 25.0289
ltoes 14.3483
79
root 6.5359 16.098 -35.0789 27.0611 -16.0289 -5.29708
lowerback -15.9549 1.24599 -0.12561
upperback -7.38073 1.56765 1.14093
thorax 1.07302 0.780946 1.5226
lowerneck -16.3626 -2.6164 -0.923661
upperneck 40.2875 -5.52084 3.39553
head 17.8437 -1.98162 0.628945
rclavicle -5.66536e-015 3.97569e-015
rhumerus -42.5739 -16.3817 -68.7168
rradius 12.7364
rwrist 13.9446
rhand -4.38406 16.1911
rfingers 7.12502
rthumb 21.3851 -12.6488
lclavicle -5.66536e-015 3.97569e-015
lhumerus -46.2065 17.2527 65.6242
lradius 27.2325
lwrist -2.32889
lhand -3.07476 15.7636
lfingers 7.12502
lthumb 22.6422 44.4555
rfemur -31.9197 -14.1529 26.0662
rtibia 55.6177
rfoot -24.2146 -36.0089
rtoes 40.9421
lfemur -42.2005 -6.44734 -22.3519
ltibia 41.3467
lfoot -47.4831 24.9992
ltoes 9.47799
80
root 6.54312 16.0888 -35.0723 26.8391 -16.3052 -5.23267
lowerback -15.837 1.21878 -0.340401
upperback -7.77992 1.55965 1.18015
thorax 0.581155 0.785403 1.67463
lowerneck -15.1342 -2.55664 -1.25319
upperneck 40.2935 -5.37478 3.54077
head 17.5357 -1.98006 0.800392
rclavicle -6.56735e-014 -1.39149e-014
rhumerus -43.4229 -15.8607 -68.453
rradius 12.5208
rwrist 14.5699
rhand -4.38492 15.876
rfingers 7.12502
rthumb 21.3843 -12.9639
lclavicle -6.56735e-014 -1.39149e-014
lhumerus -47.4583 17.0396 65.4801
lradius 27.2533
lwrist -2.00278
lhand -2.94408 15.8358
lfingers 7.12502
lthumb 22.7676 44.5124
rfemur -31.1234 -14.4826 26.0434
rtibia 56.2149
rfoot -22.4216 -36.2107
rtoes 40.7128
lfemur -41.9353 -6.73199 -22.4184
ltibia 41.4259
lfoot -48.1588 24.8625
ltoes 9.63703
81
root 6.54318 16.0886 -35.0895 26.9671 -16.1756 -4.85894
lowerback -16.4254 1.12605 -0.880649
upperback -7.32969 1.52196 0.977356
thorax 1.35858 0.769479 1.78268
lowerneck -16.497 -2.61048 -0.871014
upperneck 40.3841 -5.58899 3.50885
head 17.9433 -1.98128 0.657362
rclavicle -8.32411e-015 -4.37326e-015
rhumerus -42.5166 -16.8959 -68.5436
rradius 12.0754
rwrist 15.5328
rhand -4.35024 15.7008
rfingers 7.12502
rthumb 21.4176 -13.1354
lclavicle -8.32411e-015 -4.37326e-015
lhumerus -46.4142 17.5462 65.5994
lradius 26.8265
lwrist -2.20889
lhand -2.85708 15.5215
lfingers 7.12502
lthumb 22.8511 44.1877
rfemur -31.0097 -15.0952 26.1459
rtibia 56.9252
rfoot -20.3187 -36.5714
rtoes 41.3812
lfemur -42.2103 -5.82099 -23.1207
ltibia 41.3768
lfoot -46.6872 25.509
ltoes 6.84939
82
root 6.54895 16.0865 -35.0749 26.6836 -16.5594 -4.75388
lowerback -16.1984 1.19348 -1.08167
upperback -7.77884 1.6372 0.879069
thorax 0.756046 0.83654 1.79936
lowerneck -15.3485 -2.56223 -0.998064
upperneck 40.5726 -5.55294 3.6698
head 17.7595 -1.98719 0.779849
rclavicle -2.8712e-014 5.1684e-015
rhumerus -43.5506 -16.1384 -68.6379
rradius 12.0814
rwrist 15.7276
rhand -4.14247 15.7159
rfingers 7.12502
rthumb 21.6171 -13.0974
lclavicle -2.8712e-014 5.1684e-015
lhumerus -47.7998 17.5298 64.9948
lradius 26.7822
lwrist -2.59093
lhand -2.44317 15.4817
lfingers 7.12502
lthumb 23.2483 44.0983
rfemur -30.22 -15.6513 26.0578
rtibia 57.4631
rfoot -17.0469 -37.0735
rtoes 41.2946
lfemur -41.9751 -5.3147 -23.6717
ltibia 41.3505
lfoot -44.6599 29.1797
ltoes -1.62143
83
root 6.54694 16.0922 -35.0908 26.831 -16.5125 -4.38136
lowerback -16.4469 1.0078 -1.68321
upperback -7.53298 1.48749 0.781614
thorax 1.13781 0.769357 2.0224
lowerneck -16.683 -2.57644 -0.803373
upperneck 40.7278 -5.6572 3.64594
head 18.2049 -1.97203 0.695912
rclavicle -3.08116e-015 3.57812e-014
rhumerus -42.7369 -16.3333 -69.0562
rradius 11.8602
rwrist 16.4295
rhand -4.1183 15.5372
rfingers 7.12502
rthumb 21.6404 -13.2735
lclavicle -3.08116e-015 3.57812e-014
lhumerus -47.3043 18.2663 64.8873
lradius 26.4459
lwrist -3.21097
lhand -2.10614 15.8106
lfingers 7.12502
lthumb 23.5716 44.386
rfemur -30.189 -16.3254 26.1573
rtibia 58.051
rfoot -15.2463 -37.4755
rtoes 42.2437
lfemur -42.2829 -4.60639 -24.2241
ltibia 41.2838
lfoot -43.8491 28.6688
ltoes -2.90414
84
root 6.54949 16.0924 -35.0982 26.8944 -16.4924 -4.15608
lowerback -17.0335 0.955161 -1.79872
upperback -8.07209 1.43781 0.587359
thorax 0.875074 0.748286 1.88131
lowerneck -14.1889 -2.55631 -1.00248
upperneck 40.3304 -5.64403 3.96072
head 17.3361 -2.01444 0.90964
rclavicle -5.05658e-015 -7.55382e-015
rhumerus -44.0015 -15.5495 -69.2585
rradius 11.8728
rwrist 16.6625
rhand -4.12015 15.2575
rfingers 7.12502
rthumb 21.6386 -13.5534
lclavicle -5.05658e-015 -7.55382e-015
lhumerus -48.6582 17.5617 64.4946
lradius 26.3966
lwrist -3.00867
lhand -2.00819 16.1746
lfingers 7.12502
lthumb 23.6655 44.7379
rfemur -29.9573 -16.9074 26.2599
rtibia 58.5575
rfoot -14.0356 -37.6819
rtoes 43.4013
lfemur -42.3199 -5.12828 -24.2252
ltibia 41.2008
lfoot -44.6746 27.9331
ltoes -1.04151
85
root 6.55291 16.0906 -35.0984 26.8157 -16.4553 -4.04179
lowerback -17.2035 0.791662 -2.04137
upperback -7.67053 1.26768 0.63632
thorax 1.39069 0.661031 2.04983
lowerneck -15.612 -2.48167 -0.888058
upperneck 40.6138 -5.53549 3.80938
head 17.8573 -1.94039 0.824128
rclavicle -5.32991e-015 -3.57812e-015
rhumerus -43.0471 -15.3491 -69.7699
rradius 11.7517
rwrist 17.176
rhand -3.92504 15.1526
rfingers 7.12502
rthumb 21.8259 -13.6366
lclavicle -5.32991e-015 -3.57812e-015
lhumerus -48.2155 18.5399 64.4254
lradius 26.0288
lwrist -3.17848
lhand -2.07367 15.8695
lfingers 7.12502
lthumb 23.6027 44.4409
rfemur -29.5099 -17.5308 26.4264
rtibia 59.001
rfoot -12.9652 -37.6435
rtoes 44.036
lfemur -42.174 -4.87607 -24.4622
ltibia 41.1162
lfoot -44.4433 27.6429
ltoes -0.387547
86
root 6.55597 16.0934 -35.096 26.8066 -16.5047 -3.9333
lowerback -17.0845 0.902334 -2.25599
upperback -7.97877 1.44479 0.435162
thorax 0.991151 0.758949 1.98349
lowerneck -15.3066 -2.56526 -0.711586
upperneck 40.783 -5.75918 3.85232
head 17.8812 -2.00047 0.775563
rclavicle 4.06266e-015 2.38542e-015
rhumerus -43.8667 -16.2017 -69.109
rradius 11.5692
rwrist 18.5003
rhand -3.60677 15.5562
rfingers 7.12502
rthumb 22.1315 -13.1971
lclavicle 4.06266e-015 2.38542e-015
lhumerus -48.6006 18.2115 64.1984
lradius 25.6505
lwrist -3.30104
lhand -1.98732 15.7401
lfingers 7.12502
lthumb 23.6856 44.3009
rfemur -29.1685 -18.0851 26.5929
rtibia 59.361
rfoot -10.4337 -38.6612
rtoes 43.5615
lfemur -42.1127 -5.08945 -24.5273
ltibia 41.0513
lfoot -44.7775 27.4831
ltoes -1.65003
87
root 6.55928 16.0989 -35.0973 26.7929 -16.5097 -3.82382
lowerback -17.7607 0.872779 -2.34268
upperback -7.56334 1.44673 0.279547
thorax 1.78664 0.744639 1.89095
lowerneck -15.8552 -2.52103 -0.59695
upperneck 40.6922 -5.80007 4.02446
head 17.9832 -1.96388 0.818299
rclavicle -4.24902e-014 -3.1408e-014
rhumerus -43.2742 -17.624 -68.5839
rradius 11.023
rwrist 20.3145
rhand -3.19903 15.9502
rfingers 7.12502
rthumb 22.5229 -12.7562
lclavicle -4.24902e-014 -3.1408e-014
lhumerus -47.9448 18.837 64.0151
lradius 25.0624
lwrist -3.74525
lhand -1.66888 15.7668
lfingers 7.12502
lthumb 23.9909 44.2877
rfemur -28.7942 -18.597 26.7266
rtibia 59.6687
rfoot -8.4908 -38.9824
rtoes 44.5617
lfemur -42.0758 -5.26331 -24.5908
ltibia 40.9929
lfoot -44.9471 27.4288
ltoes -0.962048
88
root 6.56142 16.1027 -35.0969 26.8974 -16.5103 -3.87006
lowerback -18.1289 0.884796 -2.22745
upperback -7.83152 1.44823 0.160739
thorax 1.69816 0.742959 1.70518
lowerneck -14.9154 -2.45261 -0.54432
upperneck 40.6519 -5.75026 4.14447
head 17.7122 -1.94171 0.886023
rclavicle 6.37602e-014 1.59028e-015
rhumerus -43.8634 -17.3679 -68.7494
rradius 10.9964
rwrist 20.5604
rhand -2.99884 15.5463
rfingers 7.12502
rthumb 22.7151 -13.1366
lclavicle 6.37602e-014 1.59028e-015
lhumerus -48.574 18.5542 63.7646
lradius 24.7503
lwrist -3.78812
lhand -1.74096 15.7516
lfingers 7.12502
lthumb 23.9218 44.2816
rfemur -28.4846 -18.9682 27.0314
rtibia 59.8891
rfoot -7.76346 -38.9871
rtoes 45.3164
lfemur -42.1518 -5.23694 -24.5512
ltibia 40.9582
lfoot -45.0306 27.2332
ltoes -0.0980307
